<mxfile host="app.diagrams.net" modified="2023-02-15T21:45:12.716Z" agent="5.0 (Windows NT 10.0; Win64; x64) AppleWebKit/537.36 (KHTML, like Gecko) Chrome/108.0.0.0 Safari/537.36 OPR/94.0.0.0" etag="yLdLeOKgaEZjMSmLx2Ua" version="20.8.20" type="github">
  <diagram name="Pagina-1" id="OkK-L5cvAEGoLuvfL7dE">
    <mxGraphModel dx="1393" dy="758" grid="1" gridSize="10" guides="1" tooltips="1" connect="1" arrows="1" fold="1" page="1" pageScale="1" pageWidth="827" pageHeight="1169" math="0" shadow="0">
      <root>
        <object label="" id="0">
          <mxCell />
        </object>
        <mxCell id="1" parent="0" />
        <mxCell id="rJ7GQQzaCErdZeEU_AVq-4" value="" style="edgeStyle=orthogonalEdgeStyle;rounded=0;orthogonalLoop=1;jettySize=auto;html=1;" parent="1" source="rJ7GQQzaCErdZeEU_AVq-2" target="rJ7GQQzaCErdZeEU_AVq-3" edge="1">
          <mxGeometry relative="1" as="geometry" />
        </mxCell>
        <mxCell id="rJ7GQQzaCErdZeEU_AVq-2" value="Inizializzazione" style="rhombus;whiteSpace=wrap;html=1;" parent="1" vertex="1">
          <mxGeometry x="340" y="70" width="100" height="80" as="geometry" />
        </mxCell>
        <mxCell id="rJ7GQQzaCErdZeEU_AVq-7" value="" style="edgeStyle=orthogonalEdgeStyle;rounded=0;orthogonalLoop=1;jettySize=auto;html=1;" parent="1" source="rJ7GQQzaCErdZeEU_AVq-3" target="rJ7GQQzaCErdZeEU_AVq-6" edge="1">
          <mxGeometry relative="1" as="geometry" />
        </mxCell>
        <mxCell id="rJ7GQQzaCErdZeEU_AVq-3" value="Inserimento carta di credito" style="whiteSpace=wrap;html=1;" parent="1" vertex="1">
          <mxGeometry x="330" y="170" width="120" height="60" as="geometry" />
        </mxCell>
        <mxCell id="rJ7GQQzaCErdZeEU_AVq-5" value="&lt;h1&gt;Bancomat&lt;/h1&gt;&lt;p&gt;Questo diagramma illustra il funzionamento di un Bancomat&lt;/p&gt;" style="text;html=1;strokeColor=none;fillColor=none;spacing=5;spacingTop=-20;whiteSpace=wrap;overflow=hidden;rounded=0;" parent="1" vertex="1">
          <mxGeometry x="20" y="30" width="190" height="120" as="geometry" />
        </mxCell>
        <mxCell id="rJ7GQQzaCErdZeEU_AVq-11" value="" style="edgeStyle=orthogonalEdgeStyle;rounded=0;orthogonalLoop=1;jettySize=auto;html=1;" parent="1" source="rJ7GQQzaCErdZeEU_AVq-6" target="rJ7GQQzaCErdZeEU_AVq-10" edge="1">
          <mxGeometry relative="1" as="geometry" />
        </mxCell>
        <mxCell id="rJ7GQQzaCErdZeEU_AVq-33" style="edgeStyle=orthogonalEdgeStyle;rounded=0;orthogonalLoop=1;jettySize=auto;html=1;exitX=1;exitY=0.5;exitDx=0;exitDy=0;entryX=0;entryY=0.5;entryDx=0;entryDy=0;" parent="1" source="rJ7GQQzaCErdZeEU_AVq-6" target="rJ7GQQzaCErdZeEU_AVq-32" edge="1">
          <mxGeometry relative="1" as="geometry" />
        </mxCell>
        <mxCell id="rJ7GQQzaCErdZeEU_AVq-6" value="IF carta di credito valida&amp;nbsp;" style="rhombus;whiteSpace=wrap;html=1;" parent="1" vertex="1">
          <mxGeometry x="330" y="300" width="120" height="90" as="geometry" />
        </mxCell>
        <mxCell id="rJ7GQQzaCErdZeEU_AVq-17" value="" style="edgeStyle=orthogonalEdgeStyle;rounded=0;orthogonalLoop=1;jettySize=auto;html=1;" parent="1" source="rJ7GQQzaCErdZeEU_AVq-10" target="rJ7GQQzaCErdZeEU_AVq-16" edge="1">
          <mxGeometry relative="1" as="geometry" />
        </mxCell>
        <mxCell id="rJ7GQQzaCErdZeEU_AVq-10" value="Mostra saldo" style="whiteSpace=wrap;html=1;" parent="1" vertex="1">
          <mxGeometry x="180" y="315" width="120" height="60" as="geometry" />
        </mxCell>
        <mxCell id="rJ7GQQzaCErdZeEU_AVq-14" style="edgeStyle=orthogonalEdgeStyle;rounded=0;orthogonalLoop=1;jettySize=auto;html=1;entryX=1;entryY=0.5;entryDx=0;entryDy=0;" parent="1" source="rJ7GQQzaCErdZeEU_AVq-12" target="rJ7GQQzaCErdZeEU_AVq-3" edge="1">
          <mxGeometry relative="1" as="geometry">
            <mxPoint x="590" y="200" as="targetPoint" />
            <Array as="points">
              <mxPoint x="610" y="200" />
            </Array>
          </mxGeometry>
        </mxCell>
        <mxCell id="rJ7GQQzaCErdZeEU_AVq-12" value="Return to inserimento carta di credito" style="ellipse;whiteSpace=wrap;html=1;" parent="1" vertex="1">
          <mxGeometry x="610" y="300" width="80" height="80" as="geometry" />
        </mxCell>
        <mxCell id="rJ7GQQzaCErdZeEU_AVq-20" value="" style="edgeStyle=orthogonalEdgeStyle;rounded=0;orthogonalLoop=1;jettySize=auto;html=1;" parent="1" source="rJ7GQQzaCErdZeEU_AVq-16" target="rJ7GQQzaCErdZeEU_AVq-19" edge="1">
          <mxGeometry relative="1" as="geometry" />
        </mxCell>
        <mxCell id="rJ7GQQzaCErdZeEU_AVq-16" value="Inserimento importo da prelevare" style="whiteSpace=wrap;html=1;" parent="1" vertex="1">
          <mxGeometry x="180" y="400" width="120" height="60" as="geometry" />
        </mxCell>
        <mxCell id="rJ7GQQzaCErdZeEU_AVq-22" value="" style="edgeStyle=orthogonalEdgeStyle;rounded=0;orthogonalLoop=1;jettySize=auto;html=1;" parent="1" source="rJ7GQQzaCErdZeEU_AVq-19" target="rJ7GQQzaCErdZeEU_AVq-21" edge="1">
          <mxGeometry relative="1" as="geometry">
            <Array as="points">
              <mxPoint x="240" y="640" />
            </Array>
          </mxGeometry>
        </mxCell>
        <mxCell id="rJ7GQQzaCErdZeEU_AVq-28" value="" style="edgeStyle=orthogonalEdgeStyle;rounded=0;orthogonalLoop=1;jettySize=auto;html=1;" parent="1" source="rJ7GQQzaCErdZeEU_AVq-19" target="rJ7GQQzaCErdZeEU_AVq-27" edge="1">
          <mxGeometry relative="1" as="geometry" />
        </mxCell>
        <mxCell id="rJ7GQQzaCErdZeEU_AVq-19" value="IF importo da prelevare maggiore del saldo" style="rhombus;whiteSpace=wrap;html=1;" parent="1" vertex="1">
          <mxGeometry x="160" y="480" width="160" height="125" as="geometry" />
        </mxCell>
        <mxCell id="rJ7GQQzaCErdZeEU_AVq-36" style="edgeStyle=orthogonalEdgeStyle;rounded=0;orthogonalLoop=1;jettySize=auto;html=1;entryX=0.5;entryY=1;entryDx=0;entryDy=0;" parent="1" source="rJ7GQQzaCErdZeEU_AVq-21" target="rJ7GQQzaCErdZeEU_AVq-29" edge="1">
          <mxGeometry relative="1" as="geometry" />
        </mxCell>
        <mxCell id="rJ7GQQzaCErdZeEU_AVq-21" value="Eroga importo scelto" style="whiteSpace=wrap;html=1;" parent="1" vertex="1">
          <mxGeometry x="370" y="605" width="120" height="60" as="geometry" />
        </mxCell>
        <mxCell id="rJ7GQQzaCErdZeEU_AVq-23" value="True" style="text;html=1;strokeColor=none;fillColor=none;align=center;verticalAlign=middle;whiteSpace=wrap;rounded=0;" parent="1" vertex="1">
          <mxGeometry x="290" y="315" width="60" height="30" as="geometry" />
        </mxCell>
        <mxCell id="rJ7GQQzaCErdZeEU_AVq-24" value="False" style="text;html=1;strokeColor=none;fillColor=none;align=center;verticalAlign=middle;whiteSpace=wrap;rounded=0;" parent="1" vertex="1">
          <mxGeometry x="430" y="310" width="60" height="30" as="geometry" />
        </mxCell>
        <mxCell id="rJ7GQQzaCErdZeEU_AVq-25" value="True" style="text;html=1;strokeColor=none;fillColor=none;align=center;verticalAlign=middle;whiteSpace=wrap;rounded=0;" parent="1" vertex="1">
          <mxGeometry x="180" y="605" width="60" height="30" as="geometry" />
        </mxCell>
        <mxCell id="rJ7GQQzaCErdZeEU_AVq-26" value="False" style="text;html=1;strokeColor=none;fillColor=none;align=center;verticalAlign=middle;whiteSpace=wrap;rounded=0;" parent="1" vertex="1">
          <mxGeometry x="300" y="500" width="60" height="30" as="geometry" />
        </mxCell>
        <mxCell id="rJ7GQQzaCErdZeEU_AVq-30" value="" style="edgeStyle=orthogonalEdgeStyle;rounded=0;orthogonalLoop=1;jettySize=auto;html=1;" parent="1" source="rJ7GQQzaCErdZeEU_AVq-27" target="rJ7GQQzaCErdZeEU_AVq-29" edge="1">
          <mxGeometry relative="1" as="geometry" />
        </mxCell>
        <mxCell id="rJ7GQQzaCErdZeEU_AVq-27" value="Mostra errore" style="whiteSpace=wrap;html=1;" parent="1" vertex="1">
          <mxGeometry x="354" y="512.5" width="120" height="60" as="geometry" />
        </mxCell>
        <mxCell id="rJ7GQQzaCErdZeEU_AVq-35" style="edgeStyle=orthogonalEdgeStyle;rounded=0;orthogonalLoop=1;jettySize=auto;html=1;entryX=0.5;entryY=1;entryDx=0;entryDy=0;" parent="1" source="rJ7GQQzaCErdZeEU_AVq-29" target="rJ7GQQzaCErdZeEU_AVq-12" edge="1">
          <mxGeometry relative="1" as="geometry" />
        </mxCell>
        <mxCell id="rJ7GQQzaCErdZeEU_AVq-29" value="Espelle carta" style="whiteSpace=wrap;html=1;" parent="1" vertex="1">
          <mxGeometry x="510" y="512.5" width="120" height="60" as="geometry" />
        </mxCell>
        <mxCell id="rJ7GQQzaCErdZeEU_AVq-34" style="edgeStyle=orthogonalEdgeStyle;rounded=0;orthogonalLoop=1;jettySize=auto;html=1;" parent="1" source="rJ7GQQzaCErdZeEU_AVq-32" target="rJ7GQQzaCErdZeEU_AVq-12" edge="1">
          <mxGeometry relative="1" as="geometry" />
        </mxCell>
        <mxCell id="rJ7GQQzaCErdZeEU_AVq-32" value="Espelle carta" style="whiteSpace=wrap;html=1;" parent="1" vertex="1">
          <mxGeometry x="490" y="315" width="70" height="60" as="geometry" />
        </mxCell>
      </root>
    </mxGraphModel>
  </diagram>
</mxfile>
